<svg width="35" height="36" viewBox="0 0 35 36" fill="none" xmlns="http://www.w3.org/2000/svg">
<path d="M33.9062 3.31171H1.09375C0.489453 3.31171 0 3.80116 0 4.40546V25.7336C0 26.3379 0.489453 26.8273 1.09375 26.8273H13.125V29.1308L7.88881 30.7016C7.31021 30.8752 6.98188 31.4849 7.15545 32.0635C7.32895 32.642 7.93837 32.9704 8.51737 32.7969L13.8324 31.2024H20.7812C21.325 31.2024 20.3904 30.9693 26.4825 32.7969C27.0633 32.9711 27.6715 32.6399 27.8444 32.0635C28.018 31.4849 27.6896 30.8752 27.1111 30.7016L21.875 29.1308V26.8273H33.9062C34.5105 26.8273 35 26.3379 35 25.7336V4.40546C35 3.80116 34.5105 3.31171 33.9062 3.31171ZM19.6875 29.0148H15.3125V26.8273H19.6875V29.0148ZM32.8125 24.6398C31.3476 24.6398 3.37982 24.6398 2.1875 24.6398V5.49921H32.8125V24.6398Z" fill="white"/>
<path d="M17.4883 21.3587C18.3944 21.3587 19.1289 20.624 19.1289 19.7177C19.1289 18.8113 18.3944 18.0766 17.4883 18.0766C16.5822 18.0766 15.8477 18.8113 15.8477 19.7177C15.8477 20.624 16.5822 21.3587 17.4883 21.3587Z" fill="white"/>
<path d="M13.2349 15.4636C12.8078 15.8907 12.8078 16.5832 13.2349 17.0103C13.662 17.4374 14.3546 17.4375 14.7817 17.0103C16.2778 15.5143 18.6993 15.5141 20.1955 17.0103C20.409 17.2239 20.689 17.3307 20.9688 17.3307C21.9345 17.3307 22.4332 16.1545 21.7422 15.4635C19.3913 13.1126 15.586 13.1124 13.2349 15.4636Z" fill="white"/>
<path d="M11.6882 13.9176C14.894 10.7118 20.083 10.7114 23.2892 13.9176C23.7162 14.3447 24.4088 14.3447 24.836 13.9176C25.2631 13.4905 25.2631 12.7979 24.836 12.3708C20.7848 8.31955 14.1927 8.31948 10.1414 12.3708C9.71425 12.798 9.71425 13.4905 10.1414 13.9176C10.5686 14.3447 11.2611 14.3447 11.6882 13.9176Z" fill="white"/>
<rect x="6" y="8.57751" width="24" height="14" fill="#004DA0"/>
<path d="M14.4178 9.92895L22.1079 15.1907L14.456 19.2468L14.4178 9.92895Z" fill="white"/>
</svg>
