<svg width="33" height="33" viewBox="0 0 33 33" fill="none" xmlns="http://www.w3.org/2000/svg">
<g clip-path="url(#clip0)">
<path d="M14.8502 10.45H12.1002C11.7702 10.45 11.5502 10.6699 11.5502 10.9999V14.2999H9.35022V10.9999C9.35022 10.6699 9.13024 10.45 8.80024 10.45H6.05022C5.72022 10.45 5.50024 10.6699 5.50024 10.9999V22C5.50024 22.33 5.72022 22.5499 6.05022 22.5499H8.80024C9.13024 22.5499 9.35022 22.33 9.35022 22V18.7H11.5502V22C11.5502 22.33 11.7702 22.5499 12.1002 22.5499H14.8502C15.1802 22.5499 15.4002 22.33 15.4002 22V11C15.4002 10.67 15.1802 10.45 14.8502 10.45ZM14.3002 21.45H12.6502V18.15C12.6502 17.82 12.4302 17.6 12.1002 17.6H8.80024C8.47024 17.6 8.25027 17.82 8.25027 18.15V21.45H6.60027V11.55H8.2502V14.85C8.2502 15.18 8.47018 15.4 8.80018 15.4H12.1002C12.4302 15.4 12.6502 15.18 12.6502 14.85V11.55H14.3002V21.45H14.3002Z" fill="#004DA0"/>
<path d="M24.7503 10.45H18.1503C17.8203 10.45 17.6003 10.6699 17.6003 10.9999V22C17.6003 22.33 17.8203 22.5499 18.1503 22.5499H24.7503C26.5653 22.5499 28.0503 21.0649 28.0503 19.2499V13.75C28.0503 11.935 26.5653 10.45 24.7503 10.45ZM26.9503 19.25C26.9503 20.46 25.9603 21.45 24.7503 21.45H18.7003V11.55H24.7503C25.9603 11.55 26.9503 12.54 26.9503 13.75V19.25Z" fill="#004DA0"/>
<path d="M23.6503 13.2H20.9003C20.5703 13.2 20.3503 13.4199 20.3503 13.7499V19.2499C20.3503 19.5799 20.5703 19.7999 20.9003 19.7999H23.6503C24.5854 19.7999 25.3003 19.0849 25.3003 18.1499V14.8499C25.3003 13.9149 24.5854 13.2 23.6503 13.2ZM24.2004 18.15C24.2004 18.48 23.9804 18.6999 23.6504 18.6999H21.4504V14.2999H23.6503C23.9803 14.2999 24.2003 14.5199 24.2003 14.8499V18.15H24.2004Z" fill="#004DA0"/>
<path d="M26.9502 0H6.05027C2.69522 0 0.000244141 2.69498 0.000244141 6.05002V26.95C0.000244141 30.305 2.69522 33 6.05027 33H26.9503C30.3053 33 33.0002 30.305 33.0002 26.95V6.05002C33.0002 2.69498 30.3053 0 26.9502 0ZM31.9002 26.95C31.9002 29.7 29.7002 31.9 26.9502 31.9H6.05027C3.30024 31.9 1.10027 29.7 1.10027 26.95V6.05002C1.10027 3.3 3.30024 1.10002 6.05027 1.10002H26.9503C29.7003 1.10002 31.9003 3.3 31.9003 6.05002V26.95H31.9002Z" fill="#004DA0"/>
</g>
<defs>
<clipPath id="clip0">
<rect width="33" height="33" fill="white" transform="translate(0.000244141)"/>
</clipPath>
</defs>
</svg>
