<svg width="35" height="35" viewBox="0 0 35 35" fill="none" xmlns="http://www.w3.org/2000/svg">
<g clip-path="url(#clip0)">
<path d="M34.6997 16.7754L18.2251 0.300825C17.8247 -0.099624 17.1754 -0.099624 16.775 0.300825L0.300359 16.7754C0.00709774 17.0687 -0.0806074 17.5098 0.0780548 17.8929C0.236854 18.276 0.610711 18.5258 1.02545 18.5258H4.39324V33.9751C4.39324 34.5414 4.85234 35.0005 5.41863 35.0005H29.5813C30.1476 35.0005 30.6067 34.5414 30.6067 33.9751V18.5258H33.9747C34.3894 18.5258 34.7633 18.276 34.922 17.8928C35.0807 17.5097 34.9929 17.0687 34.6997 16.7754ZM29.5815 16.4751C29.0152 16.4751 28.5561 16.9342 28.5561 17.5005V32.9497H6.44409V17.5005C6.44409 16.9342 5.98499 16.4751 5.4187 16.4751H3.50095L17.5001 2.47602L31.4992 16.4751H29.5815Z" fill="white"/>
<path d="M10.984 21.8932V26.96L9.08769 28.8563C8.68724 29.2567 8.68724 29.9059 9.08769 30.3064C9.48807 30.7068 10.1373 30.7068 10.5378 30.3064L12.4341 28.4101H17.5009C21.0943 28.4101 24.0178 25.4866 24.0178 21.8932V16.4017C24.0178 15.8354 23.5587 15.3763 22.9924 15.3763H17.5009C13.9075 15.3763 10.984 18.2997 10.984 21.8932ZM21.967 21.8932C21.967 24.3597 19.9674 26.3593 17.5009 26.3593L14.4849 26.3594L18.226 22.6183C18.6264 22.2178 18.6264 21.5686 18.226 21.1682C17.8256 20.7677 17.1763 20.7677 16.7759 21.1682L13.0348 24.9092V21.8932C13.0348 19.4266 15.0343 17.4271 17.5009 17.4271H21.967V21.8932Z" fill="white"/>
<rect x="8" y="15" width="17" height="16" fill="#004DA0"/>
<circle cx="17.5" cy="23.5" r="4.75" stroke="white" stroke-width="1.5"/>
<rect x="17" y="16" width="1" height="6" rx="0.5" fill="white"/>
</g>
<defs>
<clipPath id="clip0">
<rect width="35" height="35" fill="white"/>
</clipPath>
</defs>
</svg>
