<svg width="35" height="35" viewBox="0 0 35 35" fill="none" xmlns="http://www.w3.org/2000/svg">
<path d="M24.7461 11.2793H26.7969C26.7969 9.5831 25.4169 8.20312 23.7207 8.20312V10.2539C24.2861 10.2539 24.7461 10.7139 24.7461 11.2793Z" fill="white"/>
<path d="M23.7207 4.10156V6.15234C26.5477 6.15234 28.8477 8.45229 28.8477 11.2793H30.8984C30.8984 7.32149 27.6785 4.10156 23.7207 4.10156Z" fill="white"/>
<path d="M23.7207 0V2.05078C28.8093 2.05078 32.9492 6.19069 32.9492 11.2793H35C35 5.05989 29.9401 0 23.7207 0Z" fill="white"/>
<path d="M23.2041 13.2142L21.754 11.7641L19.8835 13.6346L11.2896 5.04065C9.51227 6.81765 8.14099 8.74101 7.58645 11.2421C6.8831 14.4148 7.53956 17.7886 9.16945 20.577C7.33004 21.6689 6.88017 24.2249 8.24804 25.8755L3.55482 32.9492H0V35H21.9482V32.9492H18.3935L13.7007 25.8749C13.7967 25.7591 13.8853 25.6377 13.9655 25.5112C16.7701 27.2622 20.2128 28.0124 23.472 27.3441C26.0485 26.8158 28.028 25.4261 29.8514 23.6024L21.3337 15.0846L23.2041 13.2142ZM12.4507 23.7989C12.3637 24.5358 11.7168 25.1077 10.9745 25.1077C10.163 25.1077 9.48623 24.4311 9.48623 23.6202C9.48623 22.8587 10.0784 22.2088 10.8347 22.1397C11.7611 22.0604 12.5668 22.866 12.4507 23.7989ZM6.01597 32.9492L9.95661 27.0098C10.6157 27.2075 11.3334 27.2078 11.9925 27.0097L15.9325 32.9492H6.01597ZM14.5067 23.4111C14.4054 21.6851 13.0056 20.2451 11.283 20.0953C8.67364 16.151 8.71719 11.2806 11.3313 7.98256L26.9084 23.5597C23.5372 26.2165 18.4556 26.1828 14.5067 23.4111Z" fill="white"/>
</svg>
