<svg width="35" height="35" viewBox="0 0 35 35" fill="none" xmlns="http://www.w3.org/2000/svg">
<g clip-path="url(#clip0)">
<path d="M0.22057 27.6698C0.512951 27.3796 0.986473 27.3806 1.27673 27.6737C1.97586 28.3786 2.90884 28.7666 3.90306 28.7666C5.94604 28.7666 7.60729 27.1054 7.60729 25.0628C7.60729 23.7079 6.8678 22.4612 5.65764 21.799L5.31823 21.5993C2.71321 20.1747 1.09516 17.4457 1.09516 14.4795C1.09516 10.0072 4.73375 6.36878 9.20573 6.36878C11.1297 6.36878 12.9485 7.03581 14.4047 8.25663L17.7026 4.95887C17.9943 4.66719 18.4667 4.66719 18.7583 4.95887L31.6081 17.8085C31.7482 17.9479 31.8268 18.1385 31.8268 18.3365C31.8268 18.5348 31.7482 18.7244 31.6081 18.865L30.5059 19.9673L34.781 24.2426C35.0727 24.5345 35.0727 25.007 34.781 25.2988L30.1644 29.9147C30.0186 30.0605 29.8274 30.1334 29.6362 30.1334C29.4451 30.1334 29.2539 30.0605 29.1079 29.9147L24.8329 25.6395L23.7313 26.7413C23.5853 26.887 23.394 26.96 23.203 26.96C23.0117 26.96 22.8207 26.887 22.6748 26.7413L9.82559 13.892C9.68565 13.7522 9.6068 13.5619 9.6068 13.3638C9.6068 13.1658 9.68565 12.9761 9.82559 12.8356L13.3421 9.31875C12.1725 8.37682 10.7299 7.86252 9.20573 7.86252C5.55677 7.86252 2.58862 10.8308 2.58862 14.4796C2.58862 16.8995 3.90917 19.1261 6.05459 20.3009L6.394 20.4996C8.06419 21.4127 9.10117 23.1615 9.10117 25.0625C9.10117 27.9281 6.76892 30.2599 3.90334 30.2599C2.50806 30.2599 1.19873 29.7148 0.217014 28.7254C-0.0740891 28.4332 -0.0720978 27.9607 0.22057 27.6698ZM29.6362 28.3306L33.1968 24.7702L29.545 21.1175L25.9844 24.6782L29.6362 28.3306ZM23.2033 25.1573L30.0246 18.3365L18.2312 6.54325L11.4097 13.3638L23.2033 25.1573Z" fill="white"/>
</g>
<defs>
<clipPath id="clip0">
<rect width="35" height="35" fill="white" transform="matrix(-1 0 0 1 35 0)"/>
</clipPath>
</defs>
</svg>
