<svg width="35" height="35" viewBox="0 0 35 35" fill="none" xmlns="http://www.w3.org/2000/svg">
<path d="M33.9062 2.73419H1.09375C0.489453 2.73419 0 3.22365 0 3.82794V25.1561C0 25.7604 0.489453 26.2498 1.09375 26.2498H13.125V28.5533L7.88881 30.1241C7.31021 30.2977 6.98188 30.9074 7.15545 31.486C7.32895 32.0645 7.93837 32.3929 8.51737 32.2194L13.8324 30.6249H20.7812C21.325 30.6249 20.3904 30.3918 26.4825 32.2194C27.0633 32.3936 27.6715 32.0623 27.8444 31.486C28.018 30.9074 27.6896 30.2977 27.1111 30.1241L21.875 28.5533V26.2498H33.9062C34.5105 26.2498 35 25.7604 35 25.1561V3.82794C35 3.22365 34.5105 2.73419 33.9062 2.73419ZM19.6875 28.4373H15.3125V26.2498H19.6875V28.4373ZM32.8125 24.0623C31.3476 24.0623 3.37982 24.0623 2.1875 24.0623V4.92169H32.8125V24.0623Z" fill="white"/>
<path d="M17.4883 20.781C18.3944 20.781 19.1289 20.0465 19.1289 19.1404C19.1289 18.2343 18.3944 17.4998 17.4883 17.4998C16.5822 17.4998 15.8477 18.2343 15.8477 19.1404C15.8477 20.0465 16.5822 20.781 17.4883 20.781Z" fill="white"/>
<path d="M13.2349 14.8868C12.8078 15.3139 12.8078 16.0064 13.2349 16.4335C13.662 16.8607 14.3546 16.8607 14.7817 16.4335C16.2778 14.9375 18.6993 14.9374 20.1955 16.4335C20.409 16.6471 20.689 16.7539 20.9688 16.7539C21.9345 16.7539 22.4332 15.5777 21.7422 14.8867C19.3913 12.5358 15.586 12.5356 13.2349 14.8868Z" fill="white"/>
<path d="M11.6882 13.3399C14.894 10.1341 20.083 10.1338 23.2892 13.3399C23.7162 13.767 24.4088 13.7671 24.836 13.3399C25.2631 12.9128 25.2631 12.2203 24.836 11.7932C20.7848 7.74191 14.1927 7.74184 10.1414 11.7932C9.71425 12.2203 9.71425 12.9128 10.1414 13.3399C10.5686 13.7671 11.2611 13.7671 11.6882 13.3399Z" fill="white"/>
</svg>
