<svg width="36" height="38" viewBox="0 0 36 38" fill="none" xmlns="http://www.w3.org/2000/svg">
<path d="M21.6291 0H14.2973C6.61818 0 0.370605 6.16629 0.370605 13.7459V20.266C0.370605 25.9106 3.88399 30.9834 9.1669 33.0495V37.2763C9.1669 37.5629 9.3377 37.822 9.60305 37.9378C9.69834 37.9797 9.7995 38 9.89993 38C10.0781 38 10.2547 37.9356 10.3918 37.8126L14.6426 34.0119H21.6291C29.3082 34.0119 35.5558 27.8456 35.5558 20.266V13.7459C35.5558 6.16629 29.3082 0 21.6291 0ZM34.0897 20.266C34.0897 27.0474 28.5004 32.5646 21.6291 32.5646H14.3596C14.1779 32.5646 14.0027 32.6312 13.8678 32.752L10.6329 35.6445V32.548C10.6329 32.2411 10.4372 31.9676 10.144 31.8663C5.17558 30.1317 1.83665 25.4699 1.83665 20.266V13.7459C1.83665 6.96448 7.4267 1.44732 14.2973 1.44732H21.6291C28.5004 1.44732 34.0897 6.96448 34.0897 13.7459V20.266Z" fill="#7914BD"/>
<path d="M27.6507 22.0665L23.1456 19.1777C22.653 18.8614 22.0666 18.7543 21.4926 18.8716C20.9179 18.991 20.4238 19.326 20.1035 19.8145L19.8917 20.1358C17.9418 19.4997 15.7919 18.687 14.5047 15.0087L15.0376 14.5513C15.9524 13.7661 16.0484 12.3926 15.2531 11.4881L11.7287 7.48552C11.4634 7.18376 11.0001 7.15264 10.6944 7.41388L8.48141 9.31276C6.54036 10.9786 7.44711 13.4427 7.74545 14.2524C7.75865 14.2886 7.77477 14.3234 7.79383 14.3574C7.8708 14.4934 9.70849 17.7311 12.6765 20.7154C15.6563 23.7121 21.0359 26.4794 21.2009 26.5597C21.8151 26.9534 22.5064 27.1422 23.1903 27.1422C24.391 27.1422 25.5682 26.5611 26.2705 25.4959L27.867 23.0688C28.0869 22.7323 27.9901 22.2843 27.6507 22.0665ZM25.0404 24.7071C24.38 25.7116 23.0151 25.9967 21.9375 25.3107C21.884 25.2832 16.5395 22.5354 13.7225 19.7023C11.0895 17.0544 9.34125 14.1128 9.10301 13.7025C8.52246 12.0952 8.62508 11.1074 9.44314 10.4055L11.1034 8.98132L14.147 12.4375C14.4174 12.7443 14.3859 13.193 14.0766 13.4586L13.1772 14.23C12.958 14.4182 12.8715 14.7156 12.9573 14.9891C14.4907 19.9086 17.4727 20.8746 19.6498 21.5802L19.9672 21.6837C20.2846 21.7893 20.632 21.6685 20.8138 21.3921L21.3335 20.6018C21.4406 20.4383 21.6048 20.3275 21.7953 20.2877C21.9867 20.2472 22.1816 20.2849 22.3473 20.3912L26.2382 22.8857L25.0404 24.7071Z" fill="#7914BD"/>
<path d="M19.6365 11.7572C19.2466 11.6465 18.8412 11.8701 18.7305 12.2551C18.6198 12.6394 18.8456 13.0395 19.2348 13.1488C20.3271 13.4556 21.1972 14.3161 21.505 15.3951C21.5959 15.7135 21.8899 15.9226 22.2102 15.9226C22.2762 15.9226 22.3429 15.9139 22.4096 15.8958C22.7988 15.7873 23.0261 15.3878 22.9161 15.0028C22.4712 13.4441 21.214 12.2001 19.6365 11.7572Z" fill="#7914BD"/>
<path d="M25.2149 16.0789C25.2809 16.0789 25.3476 16.0703 25.4143 16.0522C25.8043 15.9436 26.0308 15.5434 25.9208 15.1592C25.0559 12.1321 22.6156 9.718 19.5516 8.85684C19.1623 8.74612 18.757 8.97118 18.6463 9.35544C18.5356 9.73971 18.7614 10.1399 19.1506 10.2492C21.7287 10.9728 23.7819 13.0056 24.5098 15.5521C24.6014 15.8705 24.8946 16.0789 25.2149 16.0789Z" fill="#7914BD"/>
<path d="M19.2357 5.48683C18.8457 5.37611 18.4403 5.59972 18.3296 5.98543C18.219 6.3697 18.4447 6.76988 18.834 6.87915C23.2021 8.10575 26.6817 11.5489 27.9147 15.8641C28.0056 16.1825 28.2995 16.3916 28.6198 16.3916C28.6858 16.3916 28.7525 16.383 28.8192 16.3649C29.2085 16.2563 29.4357 15.8561 29.3258 15.4719C27.9557 10.6762 24.0898 6.85093 19.2357 5.48683Z" fill="#7914BD"/>
</svg>
