<svg width="36" height="36" viewBox="0 0 36 36" fill="none" xmlns="http://www.w3.org/2000/svg">
<path d="M17.5926 0C7.89163 0 0 7.89163 0 17.5926C0 20.902 0.919551 24.1147 2.66392 26.9045C1.96902 29.339 0.713853 33.9442 0.70032 33.9923C0.635363 34.2304 0.705057 34.4849 0.883013 34.6561C1.06097 34.8272 1.31809 34.8881 1.55221 34.8164L8.52564 32.6715C11.2572 34.3171 14.3853 35.1852 17.5926 35.1852C27.2936 35.1852 35.1852 27.2936 35.1852 17.5926C35.1852 7.89163 27.2936 0 17.5926 0ZM17.5926 33.8319C14.5349 33.8319 11.5563 32.9773 8.97831 31.3615C8.86937 31.2932 8.74419 31.2587 8.61902 31.2587C8.55203 31.2587 8.48504 31.2688 8.42009 31.2884L2.33102 33.1627C2.77828 31.53 3.58212 28.6096 4.04833 26.985C4.10246 26.7969 4.07201 26.5939 3.96578 26.4295C2.25659 23.7994 1.35328 20.7437 1.35328 17.5926C1.35328 8.63864 8.63864 1.35328 17.5926 1.35328C26.5465 1.35328 33.8319 8.63864 33.8319 17.5926C33.8319 26.5465 26.5465 33.8319 17.5926 33.8319Z" fill="#00941A"/>
<path d="M29.0853 21.7377C27.8362 21.0441 26.7725 20.3485 25.9964 19.8411C25.4037 19.454 24.9754 19.1746 24.6614 19.0169C23.7838 18.5791 23.1187 18.8884 22.8656 19.1441C22.8338 19.1759 22.8054 19.2104 22.7811 19.247C21.8696 20.6145 20.6794 21.9224 20.3309 21.9928C19.9283 21.9298 18.0439 20.8587 16.171 19.2991C14.2588 17.7056 13.0557 16.1798 12.8791 15.1405C14.1059 13.8778 14.5477 13.0835 14.5477 12.1795C14.5477 11.2478 12.3744 7.35776 11.9812 6.96464C11.5868 6.57083 10.6983 6.50926 9.34031 6.77991C9.20972 6.8063 9.08928 6.87058 8.99455 6.96464C8.83013 7.12906 4.98276 11.0515 6.81104 15.8056C8.81795 21.0231 13.9692 27.0879 20.5366 28.073C21.283 28.1847 21.9826 28.2402 22.6376 28.2402C26.5012 28.2402 28.7815 26.2962 29.4236 22.44C29.4717 22.1579 29.3356 21.8764 29.0853 21.7377ZM20.7376 26.7347C13.7926 25.6933 9.41813 18.8126 8.07432 15.3198C6.74135 11.8554 9.19957 8.76652 9.81667 8.06823C10.3187 7.98298 10.8472 7.94711 11.0678 7.98162C11.5286 8.6224 13.1241 11.6368 13.1944 12.1795C13.1944 12.5347 13.0787 13.0293 11.7011 14.4077C11.5739 14.5342 11.5028 14.7061 11.5028 14.886C11.5028 18.4289 18.9756 23.344 20.2991 23.344C21.4501 23.344 22.9509 21.4095 23.8055 20.1489C23.8549 20.151 23.9381 20.1679 24.0565 20.2274C24.3001 20.3499 24.7223 20.6253 25.2562 20.9744C25.9613 21.4352 26.8977 22.0469 28.0033 22.6809C27.5013 25.0965 26.0979 27.5399 20.7376 26.7347Z" fill="#00941A"/>
</svg>
