<svg width="50" height="50" viewBox="0 0 50 50" fill="none" xmlns="http://www.w3.org/2000/svg">
<g clip-path="url(#clip0)">
<path d="M13.8411 34.1424C14.6633 35.0784 16.0887 35.1706 17.0247 34.3484C17.9607 33.5262 18.053 32.1008 17.2307 31.1648C16.4085 30.2288 14.9831 30.1365 14.0471 30.9588C13.1111 31.781 13.0189 33.2063 13.8411 34.1424Z" fill="white"/>
<path d="M41.1985 33.0063C41.855 26.4489 39.8343 20.1254 35.5079 15.2003C31.1818 10.2756 25.1716 7.45658 18.5842 7.26237C17.8295 7.24017 17.1996 7.83399 17.1774 8.58873C17.1552 9.34346 17.7489 9.97337 18.5037 9.99558C24.3244 10.1671 29.6337 12.6564 33.4539 17.0052C37.2737 21.3537 39.0579 26.9396 38.4777 32.7338C38.4384 33.1268 38.5695 33.4976 38.8111 33.7726C39.0314 34.0234 39.3436 34.1945 39.7019 34.2305C40.4532 34.3056 41.1233 33.7576 41.1985 33.0063Z" fill="white"/>
<path d="M33.6434 32.9609C33.9656 28.257 32.5112 23.8088 29.548 20.4357C26.5841 17.0618 22.3604 15.0461 17.655 14.76C16.9014 14.7142 16.2532 15.288 16.2074 16.0417C16.1616 16.7953 16.7354 17.4435 17.4891 17.4893C21.4614 17.7308 25.0144 19.4181 27.4936 22.2403C29.9722 25.0617 31.1874 28.8027 30.9154 32.7739C30.8895 33.1525 31.0202 33.5055 31.2522 33.7697C31.482 34.0312 31.8112 34.2057 32.186 34.2314C32.9393 34.283 33.5918 33.7142 33.6434 32.9609Z" fill="white"/>
<path d="M25.778 32.587C25.9281 30.0877 25.0679 27.4497 23.533 25.7024C23.5328 25.7022 23.5325 25.7019 23.5323 25.7017L23.4673 25.6277C23.467 25.6273 23.4669 25.6272 23.4666 25.6269C21.9317 23.8795 19.4265 22.6863 16.9287 22.513C16.1755 22.4608 15.5225 23.029 15.4702 23.7823C15.4439 24.1612 15.5746 24.5148 15.8069 24.7792C16.0364 25.0405 16.3651 25.2148 16.7394 25.2408C18.5176 25.3642 20.3517 26.224 21.4124 27.4316C21.4125 27.4317 21.4127 27.4319 21.4128 27.4321L21.4781 27.5064C21.4783 27.5066 21.4784 27.5067 21.4785 27.5069C22.5391 28.7142 23.1554 30.644 23.0485 32.4231C23.0033 33.1767 23.5776 33.8247 24.3313 33.8698C25.0851 33.9151 25.7328 33.3407 25.778 32.587Z" fill="white"/>
</g>
<defs>
<clipPath id="clip0">
<rect width="35" height="35" fill="white" transform="translate(26.2954) rotate(48.7029)"/>
</clipPath>
</defs>
</svg>
