<svg width="42" height="34" viewBox="0 0 42 34" fill="none" xmlns="http://www.w3.org/2000/svg">
<path d="M38.6002 33.0001H3.40024C2.04024 33.0001 1.00024 31.9599 1.00024 30.5997V15.3977C1.00024 14.0375 2.04024 12.9974 3.40024 12.9974H38.6002C39.9602 12.9974 41.0002 14.0375 41.0002 15.3977V30.5997C41.0002 31.8799 39.9602 33.0001 38.6002 33.0001Z" stroke="#004DA0" stroke-miterlimit="10" stroke-linecap="round" stroke-linejoin="round"/>
<path d="M35.8003 23.3984C34.6803 23.3984 33.8003 22.5183 33.8003 21.3981V18.1977C33.8003 17.0776 34.6803 16.1974 35.8003 16.1974C36.9203 16.1974 37.8003 17.0776 37.8003 18.1977V21.3981C37.8003 22.4383 36.9203 23.3984 35.8003 23.3984Z" stroke="#004DA0" stroke-miterlimit="10" stroke-linecap="round" stroke-linejoin="round"/>
<path d="M27.6404 21.4782C27.6404 22.5183 28.5204 23.3984 29.5604 23.3984C30.6004 23.3984 31.4804 22.5183 31.4804 21.4782V20.7581C31.4804 19.7179 30.6004 18.8378 29.5604 18.8378C29.0804 18.8378 28.6004 18.9978 28.2004 19.1578L28.3604 16.1174H31.0004" stroke="#004DA0" stroke-miterlimit="10" stroke-linecap="round" stroke-linejoin="round"/>
<path d="M24.4402 12.9974V33.0001" stroke="#004DA0" stroke-miterlimit="10" stroke-linecap="round" stroke-linejoin="round"/>
<path d="M8.44019 12.9974V33.0001" stroke="#004DA0" stroke-miterlimit="10" stroke-linecap="round" stroke-linejoin="round"/>
<path d="M1.48033 13.8774L1.08033 12.4372C0.760335 11.1571 1.48033 9.87689 2.76033 9.47684L34.3603 1.0757C35.6403 0.755664 36.9203 1.47576 37.3203 2.75593L40.2003 13.4774" stroke="#004DA0" stroke-miterlimit="10" stroke-linecap="round" stroke-linejoin="round"/>
<path d="M34.4403 11.1565C33.4803 11.3966 32.4403 10.7565 32.2003 9.79637L31.4003 6.91598C31.1603 5.95585 31.7203 4.91571 32.7603 4.59567C33.7203 4.35563 34.7603 4.91571 35.0803 5.95585L35.8803 8.83624C36.0403 9.79637 35.4803 10.8365 34.4403 11.1565Z" stroke="#004DA0" stroke-miterlimit="10" stroke-linecap="round" stroke-linejoin="round"/>
<path d="M26.6005 11.3965C26.8405 12.3566 27.8005 12.9167 28.7605 12.6766C29.7205 12.4366 30.2805 11.4765 30.0405 10.5163L29.8805 9.79625C29.6405 8.83612 28.6805 8.27604 27.7205 8.51607C27.2405 8.6761 26.8405 8.83612 26.6005 9.15616L26.0405 6.35578L28.4405 5.7157" stroke="#004DA0" stroke-miterlimit="10" stroke-linecap="round" stroke-linejoin="round"/>
<path d="M21.7205 4.43573L23.9605 12.9969" stroke="#004DA0" stroke-miterlimit="10" stroke-linecap="round" stroke-linejoin="round"/>
<path d="M7.24048 8.35663L8.44048 12.9966" stroke="#004DA0" stroke-miterlimit="10" stroke-linecap="round" stroke-linejoin="round"/>
</svg>
