<svg width="42" height="34" viewBox="0 0 42 34" fill="none" xmlns="http://www.w3.org/2000/svg">
<path d="M21.8002 12.7599L25.8002 32.9999L17.2402 27.6399H24.7602L18.4402 21.7199L23.6402 21.8799L19.3202 16.9999" stroke="#004DA0" stroke-miterlimit="10" stroke-linecap="round" stroke-linejoin="round"/>
<path d="M20.2002 12.7599L16.2002 32.9999" stroke="#004DA0" stroke-miterlimit="10" stroke-linecap="round" stroke-linejoin="round"/>
<path d="M21.0002 12.76C22.0164 12.76 22.8402 11.9362 22.8402 10.92C22.8402 9.90375 22.0164 9.07996 21.0002 9.07996C19.984 9.07996 19.1602 9.90375 19.1602 10.92C19.1602 11.9362 19.984 12.76 21.0002 12.76Z" stroke="#004DA0" stroke-miterlimit="10" stroke-linecap="round" stroke-linejoin="round"/>
<path d="M15.0802 14.1999C14.7602 13.5599 14.5202 12.9199 14.3602 12.1199C14.0402 10.5199 14.3602 8.83994 15.1602 7.55994" stroke="#004DA0" stroke-miterlimit="10" stroke-linecap="round" stroke-linejoin="round"/>
<path d="M26.9202 7.55994C27.3202 8.19994 27.5602 8.91994 27.7202 9.63994C28.0402 11.2399 27.7202 12.8399 27.0002 14.1999" stroke="#004DA0" stroke-miterlimit="10" stroke-linecap="round" stroke-linejoin="round"/>
<path d="M9.40029 17.48C8.36029 15.72 7.80029 13.64 7.64029 11.48C7.48029 8.83997 8.20029 6.35997 9.40029 4.27997" stroke="#004DA0" stroke-miterlimit="10" stroke-linecap="round" stroke-linejoin="round"/>
<path d="M32.6003 4.27997C33.6403 6.03997 34.2003 8.11997 34.3603 10.28C34.5203 12.92 33.8003 15.4 32.6003 17.48" stroke="#004DA0" stroke-miterlimit="10" stroke-linecap="round" stroke-linejoin="round"/>
<path d="M38.3601 1C40.0401 3.88 41.0001 7.32 41.0001 10.92C41.0001 14.52 40.0401 17.88 38.3601 20.84" stroke="#004DA0" stroke-miterlimit="10" stroke-linecap="round" stroke-linejoin="round"/>
<path d="M3.64024 20.76C1.96024 17.88 1.00024 14.52 1.00024 10.92C1.00024 7.32 1.96024 3.88 3.64024 1" stroke="#004DA0" stroke-miterlimit="10" stroke-linecap="round" stroke-linejoin="round"/>
</svg>
